<mxfile host="Electron" modified="2023-07-29T07:37:54.024Z" agent="Mozilla/5.0 (Windows NT 10.0; Win64; x64) AppleWebKit/537.36 (KHTML, like Gecko) draw.io/21.6.5 Chrome/114.0.5735.243 Electron/25.3.1 Safari/537.36" etag="wR_GhaspAwYBfD6H7AA6" version="21.6.5" type="device">
  <diagram name="Page-1" id="vo3o3ZLuwrH5YPKGV5T1">
    <mxGraphModel dx="1080" dy="645" grid="1" gridSize="10" guides="1" tooltips="1" connect="1" arrows="1" fold="1" page="1" pageScale="1" pageWidth="850" pageHeight="1100" math="0" shadow="0">
      <root>
        <mxCell id="0" />
        <mxCell id="1" parent="0" />
        <mxCell id="-JMyGWzFMvSKEhVez5Ns-1" value="Bank" style="text;html=1;align=center;verticalAlign=middle;resizable=0;points=[];autosize=1;strokeColor=none;fillColor=none;" vertex="1" parent="1">
          <mxGeometry x="100" y="90" width="50" height="30" as="geometry" />
        </mxCell>
        <mxCell id="-JMyGWzFMvSKEhVez5Ns-2" value="name" style="whiteSpace=wrap;html=1;align=center;" vertex="1" parent="1">
          <mxGeometry x="225" y="120" width="100" height="40" as="geometry" />
        </mxCell>
        <mxCell id="-JMyGWzFMvSKEhVez5Ns-3" value="&lt;u&gt;code&lt;/u&gt;" style="whiteSpace=wrap;html=1;align=center;" vertex="1" parent="1">
          <mxGeometry x="125" y="120" width="100" height="40" as="geometry" />
        </mxCell>
        <mxCell id="-JMyGWzFMvSKEhVez5Ns-4" value="address" style="whiteSpace=wrap;html=1;align=center;" vertex="1" parent="1">
          <mxGeometry x="325" y="120" width="100" height="40" as="geometry" />
        </mxCell>
        <mxCell id="-JMyGWzFMvSKEhVez5Ns-7" value="Branch" style="text;html=1;align=center;verticalAlign=middle;resizable=0;points=[];autosize=1;strokeColor=none;fillColor=none;" vertex="1" parent="1">
          <mxGeometry x="95" y="169" width="60" height="30" as="geometry" />
        </mxCell>
        <mxCell id="-JMyGWzFMvSKEhVez5Ns-8" value="&lt;u&gt;branch_id&lt;/u&gt;" style="whiteSpace=wrap;html=1;align=center;" vertex="1" parent="1">
          <mxGeometry x="225" y="199" width="100" height="40" as="geometry" />
        </mxCell>
        <mxCell id="-JMyGWzFMvSKEhVez5Ns-19" style="edgeStyle=orthogonalEdgeStyle;rounded=0;orthogonalLoop=1;jettySize=auto;html=1;entryX=0.5;entryY=1;entryDx=0;entryDy=0;" edge="1" parent="1" source="-JMyGWzFMvSKEhVez5Ns-9" target="-JMyGWzFMvSKEhVez5Ns-3">
          <mxGeometry relative="1" as="geometry" />
        </mxCell>
        <mxCell id="-JMyGWzFMvSKEhVez5Ns-9" value="&lt;u&gt;code&lt;/u&gt;" style="whiteSpace=wrap;html=1;align=center;" vertex="1" parent="1">
          <mxGeometry x="125" y="199" width="100" height="40" as="geometry" />
        </mxCell>
        <mxCell id="-JMyGWzFMvSKEhVez5Ns-10" value="name" style="whiteSpace=wrap;html=1;align=center;" vertex="1" parent="1">
          <mxGeometry x="325" y="199" width="100" height="40" as="geometry" />
        </mxCell>
        <mxCell id="-JMyGWzFMvSKEhVez5Ns-11" value="address" style="whiteSpace=wrap;html=1;align=center;" vertex="1" parent="1">
          <mxGeometry x="425" y="199" width="100" height="40" as="geometry" />
        </mxCell>
        <mxCell id="-JMyGWzFMvSKEhVez5Ns-13" value="Loan" style="text;html=1;align=center;verticalAlign=middle;resizable=0;points=[];autosize=1;strokeColor=none;fillColor=none;" vertex="1" parent="1">
          <mxGeometry x="100" y="248" width="50" height="30" as="geometry" />
        </mxCell>
        <mxCell id="-JMyGWzFMvSKEhVez5Ns-14" value="loan_type" style="whiteSpace=wrap;html=1;align=center;" vertex="1" parent="1">
          <mxGeometry x="225" y="278" width="100" height="40" as="geometry" />
        </mxCell>
        <mxCell id="-JMyGWzFMvSKEhVez5Ns-15" value="&lt;u&gt;loan_id&lt;/u&gt;" style="whiteSpace=wrap;html=1;align=center;" vertex="1" parent="1">
          <mxGeometry x="125" y="278" width="100" height="40" as="geometry" />
        </mxCell>
        <mxCell id="-JMyGWzFMvSKEhVez5Ns-16" value="amount" style="whiteSpace=wrap;html=1;align=center;" vertex="1" parent="1">
          <mxGeometry x="325" y="278" width="100" height="40" as="geometry" />
        </mxCell>
        <mxCell id="-JMyGWzFMvSKEhVez5Ns-20" style="edgeStyle=orthogonalEdgeStyle;rounded=0;orthogonalLoop=1;jettySize=auto;html=1;entryX=0.5;entryY=1;entryDx=0;entryDy=0;" edge="1" parent="1" source="-JMyGWzFMvSKEhVez5Ns-17" target="-JMyGWzFMvSKEhVez5Ns-8">
          <mxGeometry relative="1" as="geometry">
            <Array as="points">
              <mxPoint x="475" y="260" />
              <mxPoint x="275" y="260" />
            </Array>
          </mxGeometry>
        </mxCell>
        <mxCell id="-JMyGWzFMvSKEhVez5Ns-17" value="branch_id" style="whiteSpace=wrap;html=1;align=center;" vertex="1" parent="1">
          <mxGeometry x="425" y="278" width="100" height="40" as="geometry" />
        </mxCell>
        <mxCell id="-JMyGWzFMvSKEhVez5Ns-21" value="Account" style="text;html=1;align=center;verticalAlign=middle;resizable=0;points=[];autosize=1;strokeColor=none;fillColor=none;" vertex="1" parent="1">
          <mxGeometry x="90" y="329" width="70" height="30" as="geometry" />
        </mxCell>
        <mxCell id="-JMyGWzFMvSKEhVez5Ns-22" value="account_type" style="whiteSpace=wrap;html=1;align=center;" vertex="1" parent="1">
          <mxGeometry x="225" y="359" width="100" height="40" as="geometry" />
        </mxCell>
        <mxCell id="-JMyGWzFMvSKEhVez5Ns-23" value="&lt;u&gt;account_id&lt;/u&gt;" style="whiteSpace=wrap;html=1;align=center;" vertex="1" parent="1">
          <mxGeometry x="125" y="359" width="100" height="40" as="geometry" />
        </mxCell>
        <mxCell id="-JMyGWzFMvSKEhVez5Ns-24" value="balance" style="whiteSpace=wrap;html=1;align=center;" vertex="1" parent="1">
          <mxGeometry x="325" y="359" width="100" height="40" as="geometry" />
        </mxCell>
        <mxCell id="-JMyGWzFMvSKEhVez5Ns-41" style="edgeStyle=orthogonalEdgeStyle;rounded=0;orthogonalLoop=1;jettySize=auto;html=1;entryX=0.5;entryY=0;entryDx=0;entryDy=0;" edge="1" parent="1" source="-JMyGWzFMvSKEhVez5Ns-25" target="-JMyGWzFMvSKEhVez5Ns-8">
          <mxGeometry relative="1" as="geometry">
            <Array as="points">
              <mxPoint x="540" y="379" />
              <mxPoint x="540" y="179" />
              <mxPoint x="275" y="179" />
            </Array>
          </mxGeometry>
        </mxCell>
        <mxCell id="-JMyGWzFMvSKEhVez5Ns-25" value="branch_id" style="whiteSpace=wrap;html=1;align=center;" vertex="1" parent="1">
          <mxGeometry x="425" y="359" width="100" height="40" as="geometry" />
        </mxCell>
        <mxCell id="-JMyGWzFMvSKEhVez5Ns-26" value="Customer" style="text;html=1;align=center;verticalAlign=middle;resizable=0;points=[];autosize=1;strokeColor=none;fillColor=none;" vertex="1" parent="1">
          <mxGeometry x="84" y="410" width="80" height="30" as="geometry" />
        </mxCell>
        <mxCell id="-JMyGWzFMvSKEhVez5Ns-27" value="name" style="whiteSpace=wrap;html=1;align=center;" vertex="1" parent="1">
          <mxGeometry x="224" y="440" width="100" height="40" as="geometry" />
        </mxCell>
        <mxCell id="-JMyGWzFMvSKEhVez5Ns-43" value="" style="edgeStyle=orthogonalEdgeStyle;rounded=0;orthogonalLoop=1;jettySize=auto;html=1;" edge="1" parent="1" source="-JMyGWzFMvSKEhVez5Ns-28" target="-JMyGWzFMvSKEhVez5Ns-23">
          <mxGeometry relative="1" as="geometry" />
        </mxCell>
        <mxCell id="-JMyGWzFMvSKEhVez5Ns-28" value="&lt;u&gt;cust_id&lt;/u&gt;" style="whiteSpace=wrap;html=1;align=center;" vertex="1" parent="1">
          <mxGeometry x="124" y="440" width="100" height="40" as="geometry" />
        </mxCell>
        <mxCell id="-JMyGWzFMvSKEhVez5Ns-29" value="phone" style="whiteSpace=wrap;html=1;align=center;" vertex="1" parent="1">
          <mxGeometry x="324" y="440" width="100" height="40" as="geometry" />
        </mxCell>
        <mxCell id="-JMyGWzFMvSKEhVez5Ns-30" value="address" style="whiteSpace=wrap;html=1;align=center;" vertex="1" parent="1">
          <mxGeometry x="424" y="440" width="100" height="40" as="geometry" />
        </mxCell>
        <mxCell id="-JMyGWzFMvSKEhVez5Ns-31" value="CustomerLoan" style="text;html=1;align=center;verticalAlign=middle;resizable=0;points=[];autosize=1;strokeColor=none;fillColor=none;" vertex="1" parent="1">
          <mxGeometry x="74" y="490" width="100" height="30" as="geometry" />
        </mxCell>
        <mxCell id="-JMyGWzFMvSKEhVez5Ns-42" style="edgeStyle=orthogonalEdgeStyle;rounded=0;orthogonalLoop=1;jettySize=auto;html=1;entryX=0.75;entryY=1;entryDx=0;entryDy=0;" edge="1" parent="1" source="-JMyGWzFMvSKEhVez5Ns-32" target="-JMyGWzFMvSKEhVez5Ns-23">
          <mxGeometry relative="1" as="geometry">
            <mxPoint x="200" y="400" as="targetPoint" />
            <Array as="points">
              <mxPoint x="540" y="540" />
              <mxPoint x="540" y="420" />
              <mxPoint x="200" y="420" />
            </Array>
          </mxGeometry>
        </mxCell>
        <mxCell id="-JMyGWzFMvSKEhVez5Ns-32" value="&lt;u&gt;account_id&lt;/u&gt;" style="whiteSpace=wrap;html=1;align=center;" vertex="1" parent="1">
          <mxGeometry x="225" y="520" width="100" height="40" as="geometry" />
        </mxCell>
        <mxCell id="-JMyGWzFMvSKEhVez5Ns-39" style="edgeStyle=orthogonalEdgeStyle;rounded=0;orthogonalLoop=1;jettySize=auto;html=1;entryX=0.5;entryY=1;entryDx=0;entryDy=0;" edge="1" parent="1" source="-JMyGWzFMvSKEhVez5Ns-33" target="-JMyGWzFMvSKEhVez5Ns-28">
          <mxGeometry relative="1" as="geometry" />
        </mxCell>
        <mxCell id="-JMyGWzFMvSKEhVez5Ns-33" value="&lt;u&gt;cust_id&lt;/u&gt;" style="whiteSpace=wrap;html=1;align=center;" vertex="1" parent="1">
          <mxGeometry x="125" y="520" width="100" height="40" as="geometry" />
        </mxCell>
        <mxCell id="-JMyGWzFMvSKEhVez5Ns-36" value="Customeracc" style="text;html=1;align=center;verticalAlign=middle;resizable=0;points=[];autosize=1;strokeColor=none;fillColor=none;" vertex="1" parent="1">
          <mxGeometry x="80" y="568" width="90" height="30" as="geometry" />
        </mxCell>
        <mxCell id="-JMyGWzFMvSKEhVez5Ns-44" style="edgeStyle=orthogonalEdgeStyle;rounded=0;orthogonalLoop=1;jettySize=auto;html=1;entryX=0;entryY=0.5;entryDx=0;entryDy=0;" edge="1" parent="1" source="-JMyGWzFMvSKEhVez5Ns-37" target="-JMyGWzFMvSKEhVez5Ns-15">
          <mxGeometry relative="1" as="geometry">
            <Array as="points">
              <mxPoint x="275" y="660" />
              <mxPoint x="50" y="660" />
              <mxPoint x="50" y="298" />
            </Array>
          </mxGeometry>
        </mxCell>
        <mxCell id="-JMyGWzFMvSKEhVez5Ns-37" value="loan_id" style="whiteSpace=wrap;html=1;align=center;" vertex="1" parent="1">
          <mxGeometry x="225" y="598" width="100" height="40" as="geometry" />
        </mxCell>
        <mxCell id="-JMyGWzFMvSKEhVez5Ns-40" style="edgeStyle=orthogonalEdgeStyle;rounded=0;orthogonalLoop=1;jettySize=auto;html=1;entryX=0;entryY=0.5;entryDx=0;entryDy=0;" edge="1" parent="1" source="-JMyGWzFMvSKEhVez5Ns-38" target="-JMyGWzFMvSKEhVez5Ns-28">
          <mxGeometry relative="1" as="geometry">
            <Array as="points">
              <mxPoint x="70" y="618" />
              <mxPoint x="70" y="460" />
            </Array>
          </mxGeometry>
        </mxCell>
        <mxCell id="-JMyGWzFMvSKEhVez5Ns-38" value="&lt;u&gt;cust_id&lt;/u&gt;" style="whiteSpace=wrap;html=1;align=center;" vertex="1" parent="1">
          <mxGeometry x="125" y="598" width="100" height="40" as="geometry" />
        </mxCell>
      </root>
    </mxGraphModel>
  </diagram>
</mxfile>
